# xmcd
#
# Track frame offsets:
#	150
#	15226
#	31156
#	46308
#	65912
#	87790
#	108130
#	123207
#	139135
#	154286
#	173889
#	195816
#
# Disc length: 2877 seconds
#
# Revision: 1
# Processed by: cddbd v1.5.2PL0 Copyright (c) Steve Scherf et al.
# Submitted via: audiograbber 1.83.01
#
DISCID=8e0b3b0c
DTITLE=Wynonna - CB20102
DYEAR=1900
DGENRE=Karaoke
TTITLE0=Judd, Wynonna - When Love Starts Talking (vocal)
TTITLE1=Judd, Wynonna - Woman To Woman (vocal)
TTITLE2=Judd, Wynonna - Come Some Rainy Day (vocal)
TTITLE3=Judd, Wynonna - Freedom (vocal)
TTITLE4=Judd, Wynonna - Heaven Help My Heart (vocal)
TTITLE5=Judd, Wynonna - My Angel Is Here (vocal)
TTITLE6=Judd, Wynonna - When Love Starts Talking
TTITLE7=Judd, Wynonna - Woman To Woman
TTITLE8=Judd, Wynonna - Come Some Rainy Day
TTITLE9=Judd, Wynonna - Freedom
TTITLE10=Judd, Wynonna - Heaven Help My Heart
TTITLE11=Judd, Wynonna - My Angel Is Here
EXTD=
EXTT0=
EXTT1=
EXTT2=
EXTT3=
EXTT4=
EXTT5=
EXTT6=
EXTT7=
EXTT8=
EXTT9=
EXTT10=
EXTT11=
PLAYORDER=
